<?xml version="1.0" encoding="utf-8"?>
<!-- Generator: Adobe Illustrator 26.5.0, SVG Export Plug-In . SVG Version: 6.00 Build 0)  -->
<svg version="1.1" id="Layer_1" xmlns="http://www.w3.org/2000/svg" xmlns:xlink="http://www.w3.org/1999/xlink" x="0px" y="0px"
	 viewBox="0 0 512 512" style="enable-background:new 0 0 512 512;" xml:space="preserve">
<style type="text/css">
	.st0{fill:#373535;}
</style>
<g id="XMLID_1_">
	<path id="XMLID_6_" class="st0" d="M37.79,254.6H27.7V317h11.92c12.34,0,19.35-11.5,19.63-29.87
		C59.53,265.54,50.98,254.6,37.79,254.6 M34.99,196.4h-7.15v56.37H39.2c9.82,0,17.81-10.24,17.67-28.19
		C56.73,204.53,47.89,196.4,34.99,196.4 M43.12,318.26H0.21c-0.28,0-0.28-1.12,0-1.12h12.2V196.4H0.07v-1.26h36.74
		c15.71,0,35.2,3.09,35.9,28.61c0.7,25.24-20.61,29.87-30.43,29.87c15.71,0,34.78,11.64,34.78,32.39
		C77.2,302.7,63.46,318.26,43.12,318.26"/>
	<path id="XMLID_9_" class="st0" d="M109.31,218.56l-16.55,61.98h31.69L109.31,218.56z M121.51,317.98v-0.84h13.46l-9.82-35.34
		H92.77l-6.87,25.38c-1.54,6.31-2.24,9.96-2.24,9.96h13.04v0.84H69.91v-0.84h12.34c0,0,0.7-3.09,2.38-9.96l30.99-116.12
		l35.62,126.07h12.34v0.84H121.51L121.51,317.98z"/>
	<path id="XMLID_10_" class="st0" d="M172.56,317.98l52.59-122.57h-25.52c-18.65,0.28-23.98,23.14-24.26,47.4
		c0,3.23-0.28,7.57-0.42,12.34l-0.84-0.14v-60.86h66.89l-51.89,122.99h23.14c22.44-0.7,26.79-16.97,27.63-61.98h0.98v62.83
		L172.56,317.98L172.56,317.98z"/>
	<path id="XMLID_13_" class="st0" d="M461.73,195.42h-9.12v57.5h11.36c12.76,0,18.79-7.99,19.77-27.77
		C484.58,203.41,473.79,195.42,461.73,195.42 M507.3,319.39c-2.1,1.12-4.77,1.54-7.71,1.54c-12.62,0-16.97-9.26-16.41-33.94v-11.36
		c0-15.43-7.43-20.75-19.07-20.75h-11.36v62.26h14.58v0.7h-42.21v-0.7h12.34V195.28h-12.34v-1.26h39.69
		c19.21,0,35.2,5.33,35.2,30.43c0,21.18-17.25,29.31-30.57,29.31c19.77,0,31.55,8.27,29.31,33.52l-0.42,15.71
		c0,8.98,1.12,15.43,6.31,15.43c1.68,0,3.23-0.42,4.21-1.54c1.12-1.26,1.82-3.23,1.96-4.49c0.14-0.7,0.42-2.1,0.14-3.79v-18.23h0.98
		v11.36c0.14,10.1,0.14,11.36-0.7,13.32C510.53,316.44,509.41,318.4,507.3,319.39"/>
	<path id="XMLID_16_" class="st0" d="M286.01,218.56l-16.55,61.98h31.69L286.01,218.56z M298.21,318.12v-0.84h13.46l-9.82-35.34
		h-32.39l-6.87,25.38c-1.54,6.31-2.24,9.96-2.24,9.96h13.04v0.84H246.6v-0.84h12.34c0,0,0.7-3.09,2.38-9.96l30.99-116.12
		l35.62,126.07h12.34v0.84H298.21L298.21,318.12z"/>
	<path id="XMLID_19_" class="st0" d="M373.1,218.56l-16.55,61.98h31.69L373.1,218.56L373.1,218.56z M385.3,318.12v-0.84h13.46
		l-9.82-35.34h-32.39l-6.87,25.38c-1.54,6.31-2.24,9.96-2.24,9.96h13.04v0.84h-26.79v-0.84h12.34c0,0,0.7-3.09,2.38-9.96
		l30.99-116.12l35.62,126.07h12.34v0.84H385.3L385.3,318.12z"/>
	<polygon id="XMLID_20_" class="st0" points="308.87,200.47 308.87,206.5 310.69,206.5 310.69,207.06 304.52,207.06 304.52,206.5 
		306.34,206.5 306.34,194.3 304.52,194.3 304.52,193.88 310.69,193.88 310.69,194.3 308.87,194.3 308.87,200.05 313.78,200.05 
		313.78,194.3 311.95,194.3 311.95,193.88 318.12,193.88 318.12,194.3 316.16,194.3 316.16,206.5 318.12,206.5 318.12,207.06 
		311.95,207.06 311.95,206.5 313.78,206.5 313.78,200.47 	"/>
	<path id="XMLID_23_" class="st0" d="M323.73,203.13c-1.12,0-2.66,0.14-2.66,1.82c0,0.84,0.28,1.54,1.26,1.54
		c0.7,0,1.12-0.56,1.4-1.12c0.14-0.28,0.14-0.7,0.14-0.98v-1.26H323.73z M323.73,200.19c0-0.56-0.98-0.7-1.26-0.7
		c-0.7,0-1.54,0.42-1.26,0.7c0.14,0.14,0.28,0.56,0.28,0.98c0,0.56-0.42,0.84-0.84,0.84c-0.56,0-0.98-0.28-0.98-0.98
		c0-1.54,1.82-2.1,2.94-2.1c0.84,0,1.68,0.14,2.38,0.56c0.56,0.28,0.7,0.56,0.7,1.26v5.33c0,0.28,0.28,0.42,0.42,0.42
		c0.28,0,0.56-0.28,0.7-0.42l0.28,0.28c-0.42,0.7-0.98,0.98-1.82,0.98s-1.4-0.56-1.4-1.4c-0.7,0.84-1.68,1.4-2.8,1.4
		s-1.96-0.7-1.96-1.96c0-2.38,2.94-2.8,4.77-2.8v-2.38H323.73z"/>
	<path id="XMLID_24_" class="st0" d="M330.75,201.31c0.56-1.12,1.26-2.24,2.66-2.24c0.7,0,1.54,0.42,1.54,1.26
		c0,0.84-0.56,1.12-1.12,1.12c-0.42,0-0.84-0.42-0.84-0.98v-0.28c0-0.28,0.14-0.42-0.14-0.42c-0.42,0-0.56,0.14-0.84,0.42
		c-0.7,0.7-1.12,1.82-1.12,4.35v1.82h1.68v0.56h-4.77v-0.56h1.12v-6.87h-1.4v-0.56c0.98,0,2.1,0,3.23-0.14V201.31z"/>
	<path id="XMLID_27_" class="st0" d="M341.96,201.17c0-1.12-0.28-1.68-1.4-1.68c-1.12,0-2.24,1.54-2.24,2.24v2.52
		c0,1.26,0.84,2.66,2.1,2.66c0.98,0,1.4-0.56,1.4-1.54v-4.21H341.96z M338.46,200.75L338.46,200.75c0.42-0.84,1.4-1.68,2.38-1.68
		c2.1,0,3.51,1.96,3.51,4.07c0,1.96-1.54,4.21-3.51,4.21c-0.98,0-1.82-0.42-2.24-1.4l0,0v5.19h1.26v0.56h-4.77v-0.56h1.4v-11.5h-1.4
		v-0.56c1.12,0,2.24,0,3.37-0.14V200.75z"/>
	<path id="XMLID_30_" class="st0" d="M350.24,202.15c0-1.26,0.28-2.66-1.4-2.66c-1.54,0-1.4,1.4-1.4,2.66H350.24z M347.43,202.71
		v1.54c0,1.4,0.14,2.66,1.68,2.66c1.4,0,2.38-0.98,2.8-2.38h0.42c-0.42,1.96-1.82,2.8-3.65,2.8c-2.1,0-3.51-2.1-3.51-4.07
		c0-2.24,1.68-4.21,3.79-4.21c1.68,0,3.37,1.26,3.37,3.23c0,0.42-0.14,0.42-0.42,0.42L347.43,202.71L347.43,202.71z"/>
	<path id="XMLID_31_" class="st0" d="M356.27,201.31c0.56-1.12,1.26-2.24,2.66-2.24c0.7,0,1.54,0.42,1.54,1.26
		c0,0.84-0.56,1.12-1.12,1.12c-0.42,0-0.84-0.42-0.84-0.98v-0.28c0-0.28,0.14-0.42-0.14-0.42c-0.42,0-0.56,0.14-0.84,0.42
		c-0.7,0.7-1.12,1.82-1.12,4.35v1.82h1.68v0.56h-4.77v-0.56h1.12v-6.87h-1.26v-0.56c0.98,0,2.1,0,3.23-0.14L356.27,201.31
		L356.27,201.31z"/>
	<path id="XMLID_32_" class="st0" d="M363.7,197.52c0,1.4-0.84,2.52-1.96,3.37c-0.14,0-0.42,0-0.42-0.28l0.42-0.42
		c0.7-0.42,1.4-1.68,1.4-2.52c0-0.14-0.14-0.84-0.28-0.84c-0.28,0-0.28,0.14-0.28,0.28c-0.14,0.42-0.42,0.7-0.98,0.7
		c-0.7,0-0.98-0.56-0.98-1.26c0-0.84,0.56-1.26,1.4-1.26C363.14,195.28,363.7,196.26,363.7,197.52"/>
	<path id="XMLID_33_" class="st0" d="M364.12,207.06h-0.28v-2.8h0.56c0.14,1.4,0.98,2.66,2.38,2.66c0.84,0,1.68-0.56,1.68-1.54
		c0-0.98-0.84-1.12-1.82-1.26c-1.96-0.28-2.66-1.12-2.66-2.66c0-1.54,0.98-2.38,2.38-2.38c0.7,0,1.26,0.28,1.82,0.7l0.28-0.56h0.28
		v2.38h-0.56c-0.14-1.12-0.98-2.1-1.96-2.1c-0.7,0-1.54,0.42-1.54,1.4c0,0.56,0.14,0.84,1.82,1.12c1.68,0.28,2.66,0.56,2.66,2.66
		c0,1.96-0.98,2.66-2.66,2.66c-0.56,0-1.4-0.42-1.82-0.84L364.12,207.06z"/>
</g>
</svg>
