<?xml version="1.0" encoding="utf-8"?>
<!-- Generator: Adobe Illustrator 26.5.0, SVG Export Plug-In . SVG Version: 6.00 Build 0)  -->
<svg version="1.1" id="Layer_1" xmlns="http://www.w3.org/2000/svg" xmlns:xlink="http://www.w3.org/1999/xlink" x="0px" y="0px"
	 viewBox="0 0 512 512" style="enable-background:new 0 0 512 512;" xml:space="preserve">
<g id="XMLID_1_">
	<path id="XMLID_17_" d="M367.24,224.16c-6.87-16.97-23.15-28.76-43.2-28.76l0,0c-24.69,0-46.29,20.9-46.29,46.57
		c0,19.78,12.34,36.61,29.74,43.34c7.72,2.81,16.83,3.09,25.53,3.09h28.2v-29.32h-28.2L367.24,224.16z M307.9,247.44
		c-0.56-1.68-0.84-3.51-0.84-5.47c0-9.96,8.14-18.1,18.1-18.1c1.82,0,3.51,0.28,5.19,0.7L307.9,247.44z"/>
	<path id="XMLID_20_" d="M46.71,195.54L46.71,195.54c-25.67,0-46.57,20.76-46.43,46.43L0,316.6h27.77v-31.84
		c6.17,2.38,12.06,3.79,18.66,3.79c25.67,0,46.57-20.76,46.57-46.43C93.14,216.3,72.38,195.54,46.71,195.54z M46.85,260.21
		c-9.96,0-18.1-8.14-18.1-18.24c0-9.96,8.14-18.1,18.1-18.1s18.1,8.14,18.1,18.1C64.95,252.07,56.95,260.21,46.85,260.21z"/>
	<path id="XMLID_23_" d="M177.87,195.54c-25.67,0-46.43,20.76-46.43,46.43s20.76,46.43,46.43,46.43s46.43-20.76,46.43-46.43
		C224.3,216.3,203.54,195.54,177.87,195.54z M177.87,260.21c-9.96,0-18.1-8.14-18.1-18.1c0-9.96,8.14-18.1,18.1-18.1
		c9.96,0,18.1,8.14,18.1,18.1S187.83,260.21,177.87,260.21z"/>
	<path id="XMLID_26_" d="M465.57,195.54c-25.67,0-46.43,20.76-46.43,46.43s20.76,46.43,46.43,46.43c25.67,0,46.43-20.76,46.43-46.43
		C512,216.3,491.24,195.54,465.57,195.54z M465.57,260.21c-9.96,0-18.1-8.14-18.1-18.1c0-9.96,8.14-18.1,18.1-18.1
		c9.96,0,18.1,8.14,18.1,18.1S475.53,260.21,465.57,260.21z"/>
	<path id="XMLID_27_" d="M135.93,195.54c1.26,0,2.52,0,3.79,0.14v28.62c-1.26-0.28-2.52-0.42-3.79-0.42c-9.96,0-18.1,8.14-18.1,18.1
		v46.29H89.49v-46.29C89.49,216.58,110.4,195.54,135.93,195.54L135.93,195.54z"/>
	<path id="XMLID_28_" d="M263.15,288.26c-22.86,0-42.36-22.02-42.36-46.29s19.22-46.29,42.36-46.29h20.06v28.62h-20.06
		c-8,1.82-14.03,9.12-14.03,17.67c0,8.56,6.03,15.85,14.03,17.67h20.06v28.62H263.15L263.15,288.26z"/>
	<path id="XMLID_29_" d="M393.47,224.3l29.46,29.88c8.14,9.4-0.98,34.09-16.41,34.09h-42.92v-28.62h31.42l-29.74-30.3
		c-10.8-10.66,0.56-33.67,16.41-33.67h43.2v28.62H393.47L393.47,224.3z"/>
</g>
</svg>
