<?xml version="1.0" encoding="utf-8"?>
<!-- Generator: Adobe Illustrator 27.0.0, SVG Export Plug-In . SVG Version: 6.00 Build 0)  -->
<svg version="1.1" id="Layer_1" xmlns="http://www.w3.org/2000/svg" xmlns:xlink="http://www.w3.org/1999/xlink" x="0px" y="0px"
	 viewBox="0 0 512 512" style="enable-background:new 0 0 512 512;" xml:space="preserve">
<g id="XMLID_1_">
	<path id="XMLID_5_" d="M149.4,191.07c-29.87,0.28-54.27,33.38-54.27,62.26c0,30.43,17.95,67.59,54.27,67.45
		c36.32-0.14,55.25-40.11,55.25-67.45C204.51,223.18,179.13,190.93,149.4,191.07z M149.4,192.19c24.96,0,31.69,27.63,31.69,61.14
		c0,44.31-8.13,66.19-31.69,66.19s-31.27-17.95-31.27-66.19C118.13,223.18,124.44,192.19,149.4,192.19z"/>
	<path id="XMLID_6_" d="M214.47,254.18c-0.14-32.96,26.22-62.12,48.52-63.53c7.99-0.56,18.37,3.09,24.4,5.75
		c4.35,1.96,13.32-0.84,15.01-5.89h0.84v44.88h-0.98c0-1.96-8.27-43.47-39.41-43.47c-23,0-25.24,40.39-25.24,62.4
		s0.7,65.63,27.49,65.63c13.04,0,22.58-5.61,25.1-17.11v-34.92h-10.94v-1.54h42.21v1.54h-10.38v51.05h-0.84
		c0,0-1.68-7.43-10.24-7.29c-10.94,0-21.32,9.54-33.94,9.4C232.7,320.51,214.47,287.13,214.47,254.18L214.47,254.18z"/>
	<path id="XMLID_7_" d="M13.23,195.56H0.05v-1.54h46v1.54h-11.5l32.96,89.33c10.24-31.69,18.23-55.11,29.03-89.33h-11.5v-1.54h24.26
		v1.54H98.21L58.25,320.23L13.23,195.56z"/>
	<path id="XMLID_8_" d="M328.06,289.66l-0.14-94.38h-12.48v-1.4h46.14v1.4H349.1l0.28,103.35c2.8,11.78,7.71,20.9,24.54,20.9
		c16.83,0.14,28.19-9.96,32.53-23.7V195.14h-14.3v-1.4h117.24l0.28,45.3h-1.12c-2.1-29.17-13.46-40.25-33.24-43.47
		c-6.73-1.12-13.88-0.28-22.86-0.42v58.06c7.85,0.56,16.13,0.14,21.88-4.77c5.05-4.35,6.59-14.58,6.87-18.65h0.98v50.34h-1.12
		c-0.28,0-0.7-12.62-6.87-18.65c-6.17-6.03-14.02-7.57-21.88-6.03v61.7c10.94,0,19.77,0.98,27.35-1.12
		c23.14-6.31,31.27-25.8,31.13-45.44h1.26v47.96h-91.99v-1.4h10.38V195.42H408v100.69c-2.52,9.68-11.78,25.52-35.62,25.38
		C350.08,321.35,328.06,311.39,328.06,289.66L328.06,289.66z"/>
</g>
</svg>
